<svg id="mustache" xmlns="http://www.w3.org/2000/svg" width="118.69" height="33.658" viewBox="0 0 118.69 33.658">
  <path id="Path_1" data-name="Path 1" d="M-33.091,462.241a20.441,20.441,0,0,0-4.116.507c-11.85,2.628-16.078,15.116-23.7,20.154s-15.353,2.616-16.508.433-.85-4.6,1.055-5.91c3.12-2.153,3.388,2.409,3.388,2.409s.643-7.6-5.715-3.945c-3.809,2.19-3.713,10.7,2.751,15.551,8.13,6.1,19.6,4.76,29.2,2.848,8.8-1.753,19.313-7.26,23.914-12.7a9.517,9.517,0,0,0,.93-1.306,9.514,9.514,0,0,0,.924,1.306c4.6,5.442,15.116,10.95,23.914,12.7,9.6,1.913,21.069,3.251,29.2-2.848,6.464-4.849,6.56-13.36,2.751-15.551-6.357-3.656-5.709,3.945-5.709,3.945s.262-4.562,3.382-2.409c1.9,1.314,2.214,3.727,1.06,5.91s-8.89,4.6-16.508-.433-11.85-17.528-23.7-20.156c-8.384-1.859-13.162,1.777-15.317,4.829a12.983,12.983,0,0,0-11.2-5.335Z" transform="translate(81.236 -462.237)" fill="#fff"/>
</svg>
