<svg id="mustache-line-splitter-black" xmlns="http://www.w3.org/2000/svg" width="436" height="25.658" viewBox="0 0 436 25.658">
  <g id="moustache-473661" transform="translate(173.5)">
    <path id="Path_1" data-name="Path 1" d="M-45.26,462.24a14.985,14.985,0,0,0-3.076.386c-8.855,2-12.014,11.523-17.707,15.364s-11.473,1.994-12.335.33a3.387,3.387,0,0,1,.788-4.5c2.331-1.641,2.531,1.836,2.531,1.836s.48-5.794-4.27-3.008c-2.846,1.67-2.774,8.158,2.056,11.854,6.075,4.649,14.648,3.629,21.822,2.171,6.574-1.336,14.432-5.535,17.869-9.683a7.259,7.259,0,0,0,.695-1,7.256,7.256,0,0,0,.691,1c3.438,4.149,11.3,8.348,17.869,9.683,7.174,1.458,15.743,2.478,21.818-2.171,4.83-3.7,4.9-10.184,2.056-11.854-4.75-2.787-4.266,3.008-4.266,3.008s.2-3.478,2.527-1.836a3.388,3.388,0,0,1,.792,4.5c-.862,1.664-6.643,3.51-12.335-.33s-8.855-13.362-17.71-15.365c-6.265-1.417-9.835,1.354-11.445,3.681a9.642,9.642,0,0,0-8.37-4.067Z" transform="translate(81.236 -462.237)"/>
  </g>
  <line id="Line_6" data-name="Line 6" x2="151" transform="translate(285 12.5)" fill="none" stroke="#000" stroke-width="4"/>
  <line id="Line_7" data-name="Line 7" x2="151" transform="translate(0 12.5)" fill="none" stroke="#000" stroke-width="4"/>
</svg>
